# xmcd CD database file
#
# Track frame offsets:
#	182
#	28067
#	58750
#	96785
#	125057
#	156015
#	184352
#	212725
#
# Disc length: 3217 seconds
#
# Revision: 0
# Processed by: cddbd v1.5.2PL0 Copyright (c) Steve Scherf et al.
# Submitted via: CDex 1.51
#
DISCID=720c8f08
DTITLE=Gil Evans and Lee Konitz - Heroes
DYEAR=1900
DGENRE=Jazz
TTITLE0=Prince of Darkness
TTITLE1=Reincarnation of a Lovebird
TTITLE2=Aprilling
TTITLE3=What Am I Here For?
TTITLE4=All the Things You Are
TTITLE5=Prelude No. 20 in C Minor, Opus 28
TTITLE6=Blues Improvisation/Zee Zee
TTITLE7=Lover Man
EXTD=
EXTT0=
EXTT1=
EXTT2=
EXTT3=
EXTT4=
EXTT5=
EXTT6=
EXTT7=
PLAYORDER=
